<svg xmlns="http://www.w3.org/2000/svg" viewBox="0 0 1600 900" preserveAspectRatio="xMidYMid slice" role="img" aria-label="Silhouette d'immeubles au coucher du soleil">
  <defs>
    <linearGradient id="ciel" x1="0" y1="0" x2="0" y2="1">
      <stop offset="0%" stop-color="#F7EBD7" />
      <stop offset="38%" stop-color="#E7BE92" />
      <stop offset="72%" stop-color="#B87F5B" />
      <stop offset="100%" stop-color="#7E5340" />
    </linearGradient>
    <linearGradient id="voile" x1="0" y1="0" x2="0" y2="1">
      <stop offset="0%" stop-color="#241610" stop-opacity="0.05" />
      <stop offset="65%" stop-color="#241610" stop-opacity="0.32" />
      <stop offset="100%" stop-color="#241610" stop-opacity="0.62" />
    </linearGradient>
    <radialGradient id="halo" cx="0.5" cy="0.5" r="0.5">
      <stop offset="0%" stop-color="#FFF6E6" stop-opacity="0.85" />
      <stop offset="100%" stop-color="#FFF6E6" stop-opacity="0" />
    </radialGradient>
  </defs>

  <rect width="1600" height="900" fill="url(#ciel)" />
  <circle cx="1170" cy="395" r="240" fill="url(#halo)" />
  <circle cx="1170" cy="395" r="84" fill="#FDF3E1" opacity="0.9" />

  <!-- Plan lointain -->
  <g fill="#8A6049" opacity="0.42">
    <rect x="0" y="558" width="122" height="342" />
    <rect x="132" y="612" width="100" height="288" />
    <rect x="246" y="540" width="142" height="360" />
    <rect x="402" y="600" width="110" height="300" />
    <rect x="526" y="572" width="132" height="328" />
    <rect x="672" y="622" width="120" height="278" />
    <rect x="806" y="546" width="150" height="354" />
    <rect x="970" y="602" width="120" height="298" />
    <rect x="1104" y="566" width="136" height="334" />
    <rect x="1254" y="612" width="116" height="288" />
    <rect x="1384" y="554" width="130" height="346" />
    <rect x="1528" y="600" width="72" height="300" />
  </g>

  <!-- Plan médian -->
  <g fill="#5A3B2D">
    <rect x="58" y="662" width="152" height="238" />
    <rect x="232" y="702" width="120" height="198" />
    <rect x="372" y="640" width="170" height="260" />
    <rect x="562" y="690" width="140" height="210" />
    <rect x="722" y="650" width="160" height="250" />
    <rect x="902" y="700" width="130" height="200" />
    <rect x="1052" y="660" width="150" height="240" />
    <rect x="1222" y="690" width="140" height="210" />
    <rect x="1382" y="644" width="166" height="256" />
  </g>

  <!-- Fenêtres allumées -->
  <g fill="#FBDCA4" opacity="0.72">
    <rect x="80" y="686" width="14" height="20" /><rect x="110" y="686" width="14" height="20" />
    <rect x="140" y="686" width="14" height="20" /><rect x="170" y="686" width="14" height="20" />
    <rect x="80" y="730" width="14" height="20" /><rect x="140" y="730" width="14" height="20" />
    <rect x="110" y="774" width="14" height="20" /><rect x="170" y="774" width="14" height="20" />

    <rect x="396" y="666" width="14" height="20" /><rect x="426" y="666" width="14" height="20" />
    <rect x="456" y="666" width="14" height="20" /><rect x="486" y="666" width="14" height="20" />
    <rect x="396" y="710" width="14" height="20" /><rect x="456" y="710" width="14" height="20" />
    <rect x="426" y="754" width="14" height="20" /><rect x="486" y="754" width="14" height="20" />
    <rect x="396" y="798" width="14" height="20" /><rect x="456" y="798" width="14" height="20" />

    <rect x="746" y="676" width="14" height="20" /><rect x="776" y="676" width="14" height="20" />
    <rect x="806" y="676" width="14" height="20" /><rect x="836" y="676" width="14" height="20" />
    <rect x="746" y="720" width="14" height="20" /><rect x="806" y="720" width="14" height="20" />
    <rect x="776" y="764" width="14" height="20" /><rect x="836" y="764" width="14" height="20" />

    <rect x="1076" y="686" width="14" height="20" /><rect x="1106" y="686" width="14" height="20" />
    <rect x="1136" y="686" width="14" height="20" /><rect x="1166" y="686" width="14" height="20" />
    <rect x="1076" y="730" width="14" height="20" /><rect x="1136" y="730" width="14" height="20" />
    <rect x="1106" y="774" width="14" height="20" /><rect x="1166" y="774" width="14" height="20" />

    <rect x="1406" y="670" width="14" height="20" /><rect x="1436" y="670" width="14" height="20" />
    <rect x="1466" y="670" width="14" height="20" /><rect x="1496" y="670" width="14" height="20" />
    <rect x="1406" y="714" width="14" height="20" /><rect x="1466" y="714" width="14" height="20" />
    <rect x="1436" y="758" width="14" height="20" /><rect x="1496" y="758" width="14" height="20" />
  </g>

  <!-- Premier plan -->
  <g fill="#2C1C15">
    <rect x="0" y="806" width="1600" height="94" />
    <rect x="120" y="760" width="180" height="60" />
    <rect x="470" y="774" width="150" height="46" />
    <rect x="880" y="756" width="200" height="64" />
    <rect x="1300" y="778" width="160" height="42" />
  </g>

  <!-- Palmiers -->
  <g stroke="#2C1C15" stroke-width="11" fill="none" stroke-linecap="round">
    <path d="M200 812 C 208 752, 214 716, 226 676" />
    <path d="M1402 812 C 1394 754, 1388 720, 1376 682" />
  </g>
  <g fill="#2C1C15">
    <path d="M226 676 C 190 654, 158 656, 136 674 C 166 662, 200 664, 226 676 Z" />
    <path d="M226 676 C 246 640, 240 610, 222 590 C 234 616, 232 650, 226 676 Z" />
    <path d="M226 676 C 262 652, 296 654, 318 674 C 288 660, 252 662, 226 676 Z" />
    <path d="M226 676 C 210 642, 184 620, 158 616 C 186 630, 212 650, 226 676 Z" />
    <path d="M226 676 C 250 646, 282 624, 310 622 C 280 636, 244 652, 226 676 Z" />

    <path d="M1376 682 C 1340 660, 1308 662, 1286 680 C 1316 668, 1350 670, 1376 682 Z" />
    <path d="M1376 682 C 1396 646, 1390 616, 1372 596 C 1384 622, 1382 656, 1376 682 Z" />
    <path d="M1376 682 C 1412 658, 1446 660, 1468 680 C 1438 666, 1402 668, 1376 682 Z" />
    <path d="M1376 682 C 1360 648, 1334 626, 1308 622 C 1336 636, 1362 656, 1376 682 Z" />
    <path d="M1376 682 C 1400 652, 1432 630, 1460 628 C 1430 642, 1394 658, 1376 682 Z" />
  </g>

  <rect width="1600" height="900" fill="url(#voile)" />
</svg>
